ffmpeg started on 2025-05-02 at 14:26:06
Report written to "D:\Convert\FFMetrics\reports\ssim_report-6.txt"
Log level: 32
Command line:
ffmpeg -hide_banner -nostdin -i "G:\\\xc0\xed\xe8\xec\xe5\\\xce\xed\xe3\xee\xe8\xed\xe3\xe8\\!_35_\xcb\xe5\xf2\xee_2024\\JamClub\\\xcf\xee\xf7\xe5\xec\xf3 \xe2\xf1\xe5 \xe7\xe0\xe1\xfb\xeb\xe8 \xec\xee\xe9 \xec\xe8\xf0\\JamClub_Naze_Boku_no_Sekai_o_Dare_mo_Oboeteinai_no_ka_09_1080p_HEVC.mkv" -i "G:\\\xc0\xed\xe8\xec\xe5\\\xce\xed\xe3\xee\xe8\xed\xe3\xe8\\!_35_\xcb\xe5\xf2\xee_2024\\JamClub\\\xcf\xee\xf7\xe5\xec\xf3 \xe2\xf1\xe5 \xe7\xe0\xe1\xfb\xeb\xe8 \xec\xee\xe9 \xec\xe8\xf0\\JamClub_Naze_Boku_no_Sekai_o_Dare_mo_Oboeteinai_no_ka_09_1080p.mp4" -lavfi "[0:v]settb=AVTB,setpts=PTS-STARTPTS,format=pix_fmts=yuv420p10,fps=24000/1001,scale=1920:1080:flags=bicubic[main];[1:v]settb=AVTB,setpts=PTS-STARTPTS,format=pix_fmts=yuv420p,fps=24000/1001,scale=1920:1080:flags=bicubic[ref];[main][ref]ssim=eof_action=endall:stats_file='D\\:/Convert/FFMetrics/logs/ssim_logfile-6.txt'" -f null -
Input #0, matroska,webm, from 'G:\Аниме\Онгоинги\!_35_Лето_2024\JamClub\Почему все забыли мой мир\JamClub_Naze_Boku_no_Sekai_o_Dare_mo_Oboeteinai_no_ka_09_1080p_HEVC.mkv':
  Metadata:
    COMPATIBLE_BRANDS: isomiso2avc1mp41
    MAJOR_BRAND     : isom
    MINOR_VERSION   : 512
    ENCODER         : Lavf61.7.100
  Duration: 00:24:02.33, start: -0.001000, bitrate: 1494 kb/s
  Stream #0:0: Video: hevc (Main 10), yuv420p10le(tv, bt709, progressive), 1920x1080 [SAR 1:1 DAR 16:9], 23.98 fps, 23.98 tbr, 1k tbn (default)
      Metadata:
        HANDLER_NAME    : VideoHandler
        VENDOR_ID       : [0][0][0][0]
        ENCODER         : Lavc61.19.100 libx265
        BPS             : 1297195
        DURATION        : 00:24:02.190708333
        NUMBER_OF_FRAMES: 34578
        NUMBER_OF_BYTES : 233850268
        _STATISTICS_WRITING_APP: mkvpropedit v66.0.0 ('Josie') 64-bit
        _STATISTICS_WRITING_DATE_UTC: 2025-04-30 12:42:29
        _STATISTICS_TAGS: BPS DURATION NUMBER_OF_FRAMES NUMBER_OF_BYTES
  Stream #0:1(eng): Audio: aac (LC), 48000 Hz, stereo, fltp (default)
      Metadata:
        HANDLER_NAME    : SoundHandler
        VENDOR_ID       : [0][0][0][0]
        ENCODER         : Lavc61.19.100 aac
        BPS             : 193198
        DURATION        : 00:24:02.285000000
        NUMBER_OF_FRAMES: 67608
        NUMBER_OF_BYTES : 34830855
        _STATISTICS_WRITING_APP: mkvpropedit v66.0.0 ('Josie') 64-bit
        _STATISTICS_WRITING_DATE_UTC: 2025-04-30 12:42:29
        _STATISTICS_TAGS: BPS DURATION NUMBER_OF_FRAMES NUMBER_OF_BYTES
Input #1, mov,mp4,m4a,3gp,3g2,mj2, from 'G:\Аниме\Онгоинги\!_35_Лето_2024\JamClub\Почему все забыли мой мир\JamClub_Naze_Boku_no_Sekai_o_Dare_mo_Oboeteinai_no_ka_09_1080p.mp4':
  Metadata:
    major_brand     : isom
    minor_version   : 512
    compatible_brands: isomiso2avc1mp41
    encoder         : Lavf60.16.100
  Duration: 00:24:02.31, start: 0.000000, bitrate: 4413 kb/s
  Stream #1:0[0x1](und): Video: h264 (High) (avc1 / 0x31637661), yuv420p(progressive), 1920x1080 [SAR 1:1 DAR 16:9], 4215 kb/s, 23.98 fps, 23.98 tbr, 90k tbn (default)
      Metadata:
        handler_name    : VideoHandler
        vendor_id       : [0][0][0][0]
  Stream #1:1[0x2](eng): Audio: aac (LC) (mp4a / 0x6134706D), 48000 Hz, stereo, fltp, 191 kb/s (default)
      Metadata:
        handler_name    : SoundHandler
        vendor_id       : [0][0][0][0]
Stream mapping:
  Stream #0:0 (hevc) -> settb:default
  Stream #1:0 (h264) -> settb:default
  ssim:default -> Stream #0:0 (wrapped_avframe)
  Stream #0:1 -> #0:1 (aac (native) -> pcm_s16le (native))
Output #0, null, to 'pipe:':
  Metadata:
    COMPATIBLE_BRANDS: isomiso2avc1mp41
    MAJOR_BRAND     : isom
    MINOR_VERSION   : 512
    encoder         : Lavf61.7.100
  Stream #0:0: Video: wrapped_avframe, yuv420p10le(tv, bt709, progressive), 1920x1080 [SAR 1:1 DAR 16:9], q=2-31, 200 kb/s, 23.98 fps, 23.98 tbn
      Metadata:
        encoder         : Lavc61.19.100 wrapped_avframe
  Stream #0:1(eng): Audio: pcm_s16le, 48000 Hz, stereo, s16, 1536 kb/s (default)
      Metadata:
        HANDLER_NAME    : SoundHandler
        VENDOR_ID       : [0][0][0][0]
        _STATISTICS_TAGS: BPS DURATION NUMBER_OF_FRAMES NUMBER_OF_BYTES
        BPS             : 193198
        DURATION        : 00:24:02.285000000
        NUMBER_OF_FRAMES: 67608
        NUMBER_OF_BYTES : 34830855
        _STATISTICS_WRITING_APP: mkvpropedit v66.0.0 ('Josie') 64-bit
        _STATISTICS_WRITING_DATE_UTC: 2025-04-30 12:42:29
        encoder         : Lavc61.19.100 pcm_s16le
frame=  115 fps=0.0 q=-0.0 size=N/A time=00:00:04.79 bitrate=N/A speed=9.25x    frame=  276 fps=270 q=-0.0 size=N/A time=00:00:11.51 bitrate=N/A speed=11.2x    frame=  480 fps=310 q=-0.0 size=N/A time=00:00:20.02 bitrate=N/A speed=12.9x    frame=  715 fps=347 q=-0.0 size=N/A time=00:00:29.82 bitrate=N/A speed=14.5x    frame=  965 fps=376 q=-0.0 size=N/A time=00:00:40.24 bitrate=N/A speed=15.7x    frame= 1247 fps=403 q=-0.0 size=N/A time=00:00:52.01 bitrate=N/A speed=16.8x    frame= 1489 fps=412 q=-0.0 size=N/A time=00:01:02.10 bitrate=N/A speed=17.2x    frame= 1707 fps=414 q=-0.0 size=N/A time=00:01:11.19 bitrate=N/A speed=17.3x    frame= 1915 fps=413 q=-0.0 size=N/A time=00:01:19.87 bitrate=N/A speed=17.2x    frame= 2158 fps=418 q=-0.0 size=N/A time=00:01:30.00 bitrate=N/A speed=17.4x    frame= 2408 fps=425 q=-0.0 size=N/A time=00:01:40.43 bitrate=N/A speed=17.7x    frame= 2565 fps=414 q=-0.0 size=N/A time=00:01:47.02 bitrate=N/A speed=17.3x    frame= 2747 fps=410 q=-0.0 size=N/A time=00:01:54.57 bitrate=N/A speed=17.1x    frame= 2960 fps=410 q=-0.0 size=N/A time=00:02:03.45 bitrate=N/A speed=17.1x    frame= 3169 fps=410 q=-0.0 size=N/A time=00:02:12.17 bitrate=N/A speed=17.1x    frame= 3354 fps=407 q=-0.0 size=N/A time=00:02:19.88 bitrate=N/A speed=  17x    frame= 3565 fps=407 q=-0.0 size=N/A time=00:02:28.69 bitrate=N/A speed=  17x    frame= 3741 fps=403 q=-0.0 size=N/A time=00:02:36.03 bitrate=N/A speed=16.8x    frame= 3911 fps=399 q=-0.0 size=N/A time=00:02:43.12 bitrate=N/A speed=16.7x    frame= 4098 fps=397 q=-0.0 size=N/A time=00:02:50.92 bitrate=N/A speed=16.6x    frame= 4275 fps=395 q=-0.0 size=N/A time=00:02:58.30 bitrate=N/A speed=16.5x    frame= 4471 fps=394 q=-0.0 size=N/A time=00:03:06.47 bitrate=N/A speed=16.4x    frame= 4694 fps=396 q=-0.0 size=N/A time=00:03:15.77 bitrate=N/A speed=16.5x    frame= 4882 fps=394 q=-0.0 size=N/A time=00:03:23.62 bitrate=N/A speed=16.5x    frame= 5082 fps=394 q=-0.0 size=N/A time=00:03:31.96 bitrate=N/A speed=16.5x    frame= 5310 fps=396 q=-0.0 size=N/A time=00:03:41.47 bitrate=N/A speed=16.5x    frame= 5475 fps=394 q=-0.0 size=N/A time=00:03:48.35 bitrate=N/A speed=16.4x    frame= 5651 fps=391 q=-0.0 size=N/A time=00:03:55.69 bitrate=N/A speed=16.3x    frame= 5867 fps=393 q=-0.0 size=N/A time=00:04:04.70 bitrate=N/A speed=16.4x    frame= 6090 fps=394 q=-0.0 size=N/A time=00:04:14.00 bitrate=N/A speed=16.4x    frame= 6310 fps=395 q=-0.0 size=N/A time=00:04:23.17 bitrate=N/A speed=16.5x    frame= 6501 fps=394 q=-0.0 size=N/A time=00:04:31.14 bitrate=N/A speed=16.4x    frame= 6709 fps=394 q=-0.0 size=N/A time=00:04:39.82 bitrate=N/A speed=16.4x    frame= 6943 fps=396 q=-0.0 size=N/A time=00:04:49.58 bitrate=N/A speed=16.5x    frame= 7185 fps=398 q=-0.0 size=N/A time=00:04:59.67 bitrate=N/A speed=16.6x    frame= 7425 fps=400 q=-0.0 size=N/A time=00:05:09.68 bitrate=N/A speed=16.7x    frame= 7651 fps=401 q=-0.0 size=N/A time=00:05:19.11 bitrate=N/A speed=16.7x    frame= 7905 fps=404 q=-0.0 size=N/A time=00:05:29.70 bitrate=N/A speed=16.8x    frame= 8158 fps=406 q=-0.0 size=N/A time=00:05:40.25 bitrate=N/A speed=16.9x    frame= 8415 fps=408 q=-0.0 size=N/A time=00:05:50.97 bitrate=N/A speed=  17x    frame= 8640 fps=409 q=-0.0 size=N/A time=00:06:00.36 bitrate=N/A speed=  17x    frame= 8912 fps=411 q=-0.0 size=N/A time=00:06:11.70 bitrate=N/A speed=17.2x    frame= 9172 fps=414 q=-0.0 size=N/A time=00:06:22.54 bitrate=N/A speed=17.3x    frame= 9434 fps=416 q=-0.0 size=N/A time=00:06:33.47 bitrate=N/A speed=17.3x    frame= 9683 fps=417 q=-0.0 size=N/A time=00:06:43.86 bitrate=N/A speed=17.4x    frame= 9921 fps=418 q=-0.0 size=N/A time=00:06:53.78 bitrate=N/A speed=17.5x    frame=10170 fps=420 q=-0.0 size=N/A time=00:07:04.17 bitrate=N/A speed=17.5x    frame=10407 fps=421 q=-0.0 size=N/A time=00:07:14.05 bitrate=N/A speed=17.5x    frame=10597 fps=419 q=-0.0 size=N/A time=00:07:21.98 bitrate=N/A speed=17.5x    frame=10842 fps=420 q=-0.0 size=N/A time=00:07:32.20 bitrate=N/A speed=17.5x    frame=11053 fps=420 q=-0.0 size=N/A time=00:07:41.00 bitrate=N/A speed=17.5x    frame=11283 fps=421 q=-0.0 size=N/A time=00:07:50.59 bitrate=N/A speed=17.5x    frame=11524 fps=422 q=-0.0 size=N/A time=00:08:00.64 bitrate=N/A speed=17.6x    frame=11734 fps=422 q=-0.0 size=N/A time=00:08:09.40 bitrate=N/A speed=17.6x    frame=11969 fps=422 q=-0.0 size=N/A time=00:08:19.20 bitrate=N/A speed=17.6x    frame=12195 fps=422 q=-0.0 size=N/A time=00:08:28.63 bitrate=N/A speed=17.6x    frame=12419 fps=423 q=-0.0 size=N/A time=00:08:37.97 bitrate=N/A speed=17.6x    frame=12653 fps=423 q=-0.0 size=N/A time=00:08:47.73 bitrate=N/A speed=17.6x    frame=12892 fps=424 q=-0.0 size=N/A time=00:08:57.70 bitrate=N/A speed=17.7x    frame=13172 fps=426 q=-0.0 size=N/A time=00:09:09.38 bitrate=N/A speed=17.8x    frame=13433 fps=427 q=-0.0 size=N/A time=00:09:20.26 bitrate=N/A speed=17.8x    frame=13684 fps=428 q=-0.0 size=N/A time=00:09:30.73 bitrate=N/A speed=17.9x    frame=13920 fps=429 q=-0.0 size=N/A time=00:09:40.58 bitrate=N/A speed=17.9x    frame=14165 fps=429 q=-0.0 size=N/A time=00:09:50.79 bitrate=N/A speed=17.9x    frame=14409 fps=430 q=-0.0 size=N/A time=00:10:00.97 bitrate=N/A speed=17.9x    frame=14646 fps=430 q=-0.0 size=N/A time=00:10:10.86 bitrate=N/A speed=  18x    frame=14881 fps=431 q=-0.0 size=N/A time=00:10:20.66 bitrate=N/A speed=  18x    frame=15117 fps=431 q=-0.0 size=N/A time=00:10:30.50 bitrate=N/A speed=  18x    frame=15367 fps=432 q=-0.0 size=N/A time=00:10:40.93 bitrate=N/A speed=  18x    frame=15622 fps=433 q=-0.0 size=N/A time=00:10:51.56 bitrate=N/A speed=18.1x    frame=15893 fps=434 q=-0.0 size=N/A time=00:11:02.87 bitrate=N/A speed=18.1x    frame=16150 fps=435 q=-0.0 size=N/A time=00:11:13.58 bitrate=N/A speed=18.1x    frame=16441 fps=437 q=-0.0 size=N/A time=00:11:25.72 bitrate=N/A speed=18.2x    frame=16713 fps=438 q=-0.0 size=N/A time=00:11:37.07 bitrate=N/A speed=18.3x    frame=16994 fps=439 q=-0.0 size=N/A time=00:11:48.79 bitrate=N/A speed=18.3x    frame=17265 fps=441 q=-0.0 size=N/A time=00:12:00.09 bitrate=N/A speed=18.4x    frame=17534 fps=442 q=-0.0 size=N/A time=00:12:11.31 bitrate=N/A speed=18.4x    frame=17820 fps=443 q=-0.0 size=N/A time=00:12:23.24 bitrate=N/A speed=18.5x    frame=18079 fps=444 q=-0.0 size=N/A time=00:12:34.04 bitrate=N/A speed=18.5x    frame=18311 fps=444 q=-0.0 size=N/A time=00:12:43.72 bitrate=N/A speed=18.5x    frame=18553 fps=444 q=-0.0 size=N/A time=00:12:53.81 bitrate=N/A speed=18.5x    frame=18795 fps=445 q=-0.0 size=N/A time=00:13:03.90 bitrate=N/A speed=18.5x    frame=19039 fps=445 q=-0.0 size=N/A time=00:13:14.08 bitrate=N/A speed=18.6x    frame=19256 fps=445 q=-0.0 size=N/A time=00:13:23.13 bitrate=N/A speed=18.5x    frame=19501 fps=445 q=-0.0 size=N/A time=00:13:33.35 bitrate=N/A speed=18.6x    frame=19749 fps=445 q=-0.0 size=N/A time=00:13:43.69 bitrate=N/A speed=18.6x    frame=19998 fps=446 q=-0.0 size=N/A time=00:13:54.08 bitrate=N/A speed=18.6x    frame=20239 fps=446 q=-0.0 size=N/A time=00:14:04.13 bitrate=N/A speed=18.6x    frame=20453 fps=446 q=-0.0 size=N/A time=00:14:13.06 bitrate=N/A speed=18.6x    frame=20700 fps=446 q=-0.0 size=N/A time=00:14:23.36 bitrate=N/A speed=18.6x    frame=20901 fps=446 q=-0.0 size=N/A time=00:14:31.74 bitrate=N/A speed=18.6x    frame=21138 fps=446 q=-0.0 size=N/A time=00:14:41.63 bitrate=N/A speed=18.6x    frame=21398 fps=446 q=-0.0 size=N/A time=00:14:52.47 bitrate=N/A speed=18.6x    frame=21648 fps=447 q=-0.0 size=N/A time=00:15:02.90 bitrate=N/A speed=18.6x    frame=21908 fps=447 q=-0.0 size=N/A time=00:15:13.74 bitrate=N/A speed=18.7x    frame=22182 fps=448 q=-0.0 size=N/A time=00:15:25.17 bitrate=N/A speed=18.7x    frame=22467 fps=449 q=-0.0 size=N/A time=00:15:37.06 bitrate=N/A speed=18.7x    frame=22741 fps=450 q=-0.0 size=N/A time=00:15:48.48 bitrate=N/A speed=18.8x    frame=23011 fps=451 q=-0.0 size=N/A time=00:15:59.75 bitrate=N/A speed=18.8x    frame=23282 fps=452 q=-0.0 size=N/A time=00:16:11.05 bitrate=N/A speed=18.8x    frame=23547 fps=452 q=-0.0 size=N/A time=00:16:22.10 bitrate=N/A speed=18.9x    frame=23797 fps=452 q=-0.0 size=N/A time=00:16:32.53 bitrate=N/A speed=18.9x    frame=24058 fps=453 q=-0.0 size=N/A time=00:16:43.41 bitrate=N/A speed=18.9x    frame=24320 fps=453 q=-0.0 size=N/A time=00:16:54.34 bitrate=N/A speed=18.9x    frame=24557 fps=454 q=-0.0 size=N/A time=00:17:04.23 bitrate=N/A speed=18.9x    frame=24796 fps=454 q=-0.0 size=N/A time=00:17:14.19 bitrate=N/A speed=18.9x    frame=25037 fps=454 q=-0.0 size=N/A time=00:17:24.25 bitrate=N/A speed=18.9x    frame=25270 fps=454 q=-0.0 size=N/A time=00:17:33.96 bitrate=N/A speed=18.9x    frame=25515 fps=454 q=-0.0 size=N/A time=00:17:44.18 bitrate=N/A speed=18.9x    frame=25746 fps=454 q=-0.0 size=N/A time=00:17:53.82 bitrate=N/A speed=18.9x    frame=25979 fps=454 q=-0.0 size=N/A time=00:18:03.54 bitrate=N/A speed=18.9x    frame=26245 fps=455 q=-0.0 size=N/A time=00:18:14.63 bitrate=N/A speed=  19x    frame=26501 fps=455 q=-0.0 size=N/A time=00:18:25.31 bitrate=N/A speed=  19x    frame=26761 fps=455 q=-0.0 size=N/A time=00:18:36.15 bitrate=N/A speed=  19x    frame=27002 fps=455 q=-0.0 size=N/A time=00:18:46.20 bitrate=N/A speed=  19x    frame=27273 fps=456 q=-0.0 size=N/A time=00:18:57.51 bitrate=N/A speed=  19x    frame=27531 fps=456 q=-0.0 size=N/A time=00:19:08.27 bitrate=N/A speed=  19x    frame=27748 fps=456 q=-0.0 size=N/A time=00:19:17.32 bitrate=N/A speed=  19x    frame=28008 fps=456 q=-0.0 size=N/A time=00:19:28.16 bitrate=N/A speed=  19x    frame=28204 fps=456 q=-0.0 size=N/A time=00:19:36.34 bitrate=N/A speed=  19x    frame=28406 fps=455 q=-0.0 size=N/A time=00:19:44.76 bitrate=N/A speed=  19x    frame=28668 fps=456 q=-0.0 size=N/A time=00:19:55.69 bitrate=N/A speed=  19x    frame=28936 fps=456 q=-0.0 size=N/A time=00:20:06.87 bitrate=N/A speed=  19x    frame=29185 fps=457 q=-0.0 size=N/A time=00:20:17.25 bitrate=N/A speed=  19x    frame=29474 fps=457 q=-0.0 size=N/A time=00:20:29.31 bitrate=N/A speed=19.1x    frame=29691 fps=457 q=-0.0 size=N/A time=00:20:38.36 bitrate=N/A speed=19.1x    frame=29847 fps=456 q=-0.0 size=N/A time=00:20:44.86 bitrate=N/A speed=  19x    frame=30043 fps=455 q=-0.0 size=N/A time=00:20:53.04 bitrate=N/A speed=  19x    frame=30245 fps=455 q=-0.0 size=N/A time=00:21:01.46 bitrate=N/A speed=  19x    frame=30455 fps=454 q=-0.0 size=N/A time=00:21:10.22 bitrate=N/A speed=  19x    frame=30641 fps=454 q=-0.0 size=N/A time=00:21:17.98 bitrate=N/A speed=18.9x    frame=30854 fps=453 q=-0.0 size=N/A time=00:21:26.86 bitrate=N/A speed=18.9x    frame=31070 fps=453 q=-0.0 size=N/A time=00:21:35.87 bitrate=N/A speed=18.9x    frame=31293 fps=453 q=-0.0 size=N/A time=00:21:45.17 bitrate=N/A speed=18.9x    frame=31537 fps=453 q=-0.0 size=N/A time=00:21:55.35 bitrate=N/A speed=18.9x    frame=31771 fps=453 q=-0.0 size=N/A time=00:22:05.11 bitrate=N/A speed=18.9x    frame=32051 fps=454 q=-0.0 size=N/A time=00:22:16.79 bitrate=N/A speed=18.9x    frame=32289 fps=454 q=-0.0 size=N/A time=00:22:26.72 bitrate=N/A speed=18.9x    frame=32553 fps=454 q=-0.0 size=N/A time=00:22:37.73 bitrate=N/A speed=18.9x    frame=32806 fps=454 q=-0.0 size=N/A time=00:22:48.28 bitrate=N/A speed=  19x    frame=33050 fps=455 q=-0.0 size=N/A time=00:22:58.46 bitrate=N/A speed=  19x    frame=33278 fps=455 q=-0.0 size=N/A time=00:23:08.01 bitrate=N/A speed=  19x    frame=33451 fps=454 q=-0.0 size=N/A time=00:23:15.18 bitrate=N/A speed=18.9x    frame=33617 fps=453 q=-0.0 size=N/A time=00:23:22.10 bitrate=N/A speed=18.9x    frame=33771 fps=452 q=-0.0 size=N/A time=00:23:28.53 bitrate=N/A speed=18.8x    frame=33943 fps=451 q=-0.0 size=N/A time=00:23:35.70 bitrate=N/A speed=18.8x    frame=34129 fps=450 q=-0.0 size=N/A time=00:23:43.46 bitrate=N/A speed=18.8x    frame=34304 fps=450 q=-0.0 size=N/A time=00:23:50.76 bitrate=N/A speed=18.7x    frame=34461 fps=449 q=-0.0 size=N/A time=00:23:57.31 bitrate=N/A speed=18.7x    [Parsed_ssim_10 @ 000001dbf0d6d000] SSIM Y:0.993547 (21.902278) U:0.993211 (21.681648) V:0.993464 (21.846606) All:0.993477 (21.855471)
[out#0/null @ 000001dbda22c100] video:14858KiB audio:270432KiB subtitle:0KiB other streams:0KiB global headers:0KiB muxing overhead: unknown
frame=34578 fps=448 q=-0.0 Lsize=N/A time=00:24:02.19 bitrate=N/A speed=18.7x    
